<mxfile host="app.diagrams.net" modified="2023-03-25T01:07:33.837Z" agent="Mozilla/5.0 (Windows NT 10.0; Win64; x64) AppleWebKit/537.36 (KHTML, like Gecko) Chrome/111.0.0.0 Safari/537.36 Edg/111.0.1661.51" etag="ydoO0QDavuCXOpCqQE_2" version="21.1.1" type="device">
  <diagram name="Page-1" id="FytgiUqkm5GPXIHzUXbD">
    <mxGraphModel dx="2074" dy="1116" grid="0" gridSize="10" guides="1" tooltips="1" connect="1" arrows="1" fold="1" page="1" pageScale="1" pageWidth="850" pageHeight="1100" math="0" shadow="0">
      <root>
        <mxCell id="0" />
        <mxCell id="1" parent="0" />
        <mxCell id="A4_IoPBeviKEkCfWcavT-7" value="Virtual Network" style="rounded=1;whiteSpace=wrap;html=1;fillColor=none;labelPosition=center;verticalLabelPosition=top;align=center;verticalAlign=bottom;" parent="1" vertex="1">
          <mxGeometry x="113" y="280" width="625" height="380" as="geometry" />
        </mxCell>
        <mxCell id="qDwgUS6RieluRxAYZsNb-8" value="Subnet 3" style="rounded=1;whiteSpace=wrap;html=1;fillColor=none;labelPosition=center;verticalLabelPosition=top;align=center;verticalAlign=bottom;" parent="1" vertex="1">
          <mxGeometry x="438" y="541.75" width="272" height="90" as="geometry" />
        </mxCell>
        <mxCell id="Ook-Ea6g9wBJzKAKL0em-4" style="edgeStyle=orthogonalEdgeStyle;rounded=0;orthogonalLoop=1;jettySize=auto;html=1;exitX=1;exitY=0.25;exitDx=0;exitDy=0;entryX=0;entryY=0.25;entryDx=0;entryDy=0;" parent="1" source="A4_IoPBeviKEkCfWcavT-21" target="A4_IoPBeviKEkCfWcavT-10" edge="1">
          <mxGeometry relative="1" as="geometry" />
        </mxCell>
        <mxCell id="Ook-Ea6g9wBJzKAKL0em-5" style="edgeStyle=orthogonalEdgeStyle;rounded=0;orthogonalLoop=1;jettySize=auto;html=1;exitX=1;exitY=0.75;exitDx=0;exitDy=0;entryX=0;entryY=0.5;entryDx=0;entryDy=0;" parent="1" source="A4_IoPBeviKEkCfWcavT-21" target="qDwgUS6RieluRxAYZsNb-8" edge="1">
          <mxGeometry relative="1" as="geometry" />
        </mxCell>
        <mxCell id="A4_IoPBeviKEkCfWcavT-21" value="Subnet 1" style="rounded=1;whiteSpace=wrap;html=1;fillColor=none;labelPosition=center;verticalLabelPosition=top;align=center;verticalAlign=bottom;" parent="1" vertex="1">
          <mxGeometry x="153" y="332" width="90" height="280" as="geometry" />
        </mxCell>
        <mxCell id="A4_IoPBeviKEkCfWcavT-10" value="Subnet 2" style="rounded=1;whiteSpace=wrap;html=1;fillColor=none;labelPosition=center;verticalLabelPosition=top;align=center;verticalAlign=bottom;" parent="1" vertex="1">
          <mxGeometry x="438" y="312.25" width="272" height="90" as="geometry" />
        </mxCell>
        <mxCell id="A4_IoPBeviKEkCfWcavT-3" value="SQL Endpoint" style="aspect=fixed;html=1;points=[];align=center;image;fontSize=12;image=img/lib/azure2/networking/Private_Endpoint.svg;fillColor=none;" parent="1" vertex="1">
          <mxGeometry x="463.45000000000005" y="567.25" width="42.55" height="39" as="geometry" />
        </mxCell>
        <mxCell id="A4_IoPBeviKEkCfWcavT-19" value="KV Endpoint" style="aspect=fixed;html=1;points=[];align=center;image;fontSize=12;image=img/lib/azure2/networking/Private_Endpoint.svg;fillColor=none;" parent="1" vertex="1">
          <mxGeometry x="463.45" y="329" width="42.14" height="38.62" as="geometry" />
        </mxCell>
        <mxCell id="-JuJx99K8etZUBjSIL4l-1" value="Managed Identity" style="aspect=fixed;html=1;points=[];align=center;image;fontSize=12;image=img/lib/azure2/identity/Managed_Identities.svg;labelPosition=center;verticalLabelPosition=top;verticalAlign=bottom;" parent="1" vertex="1">
          <mxGeometry x="370" y="150" width="68" height="66" as="geometry" />
        </mxCell>
        <mxCell id="-JuJx99K8etZUBjSIL4l-2" value="" style="endArrow=classic;html=1;rounded=0;dashed=1;" parent="1" target="-JuJx99K8etZUBjSIL4l-1" edge="1">
          <mxGeometry width="50" height="50" relative="1" as="geometry">
            <mxPoint x="232" y="361.7450980392157" as="sourcePoint" />
            <mxPoint x="428" y="260" as="targetPoint" />
          </mxGeometry>
        </mxCell>
        <mxCell id="-JuJx99K8etZUBjSIL4l-3" value="" style="endArrow=classic;html=1;rounded=0;dashed=1;" parent="1" source="-JuJx99K8etZUBjSIL4l-1" target="qDwgUS6RieluRxAYZsNb-10" edge="1">
          <mxGeometry width="50" height="50" relative="1" as="geometry">
            <mxPoint x="498" y="580" as="sourcePoint" />
            <mxPoint x="781" y="341.49333333333334" as="targetPoint" />
          </mxGeometry>
        </mxCell>
        <mxCell id="qDwgUS6RieluRxAYZsNb-7" value="SQL DB" style="aspect=fixed;html=1;points=[];align=center;image;fontSize=12;image=img/lib/azure2/databases/Azure_SQL.svg;" parent="1" vertex="1">
          <mxGeometry x="632.75" y="560.25" width="64" height="46" as="geometry" />
        </mxCell>
        <mxCell id="qDwgUS6RieluRxAYZsNb-10" value="Keyvault" style="aspect=fixed;html=1;points=[];align=center;image;fontSize=12;image=img/lib/azure2/security/Key_Vaults.svg;" parent="1" vertex="1">
          <mxGeometry x="642" y="326.38" width="54.75" height="54.75" as="geometry" />
        </mxCell>
        <mxCell id="Ook-Ea6g9wBJzKAKL0em-2" value="SQL NIC" style="aspect=fixed;html=1;points=[];align=center;image;fontSize=12;image=img/lib/azure2/networking/Network_Interfaces.svg;" parent="1" vertex="1">
          <mxGeometry x="545" y="555.07" width="58" height="51.18" as="geometry" />
        </mxCell>
        <mxCell id="Ook-Ea6g9wBJzKAKL0em-3" value="KV NIC" style="aspect=fixed;html=1;points=[];align=center;image;fontSize=12;image=img/lib/azure2/networking/Network_Interfaces.svg;" parent="1" vertex="1">
          <mxGeometry x="542.5" y="325.54" width="63" height="55.59" as="geometry" />
        </mxCell>
        <mxCell id="Ook-Ea6g9wBJzKAKL0em-1" value="App Services" style="aspect=fixed;html=1;points=[];align=center;image;fontSize=12;image=img/lib/azure2/containers/App_Services.svg;" parent="1" vertex="1">
          <mxGeometry x="167" y="352" width="62" height="62" as="geometry" />
        </mxCell>
      </root>
    </mxGraphModel>
  </diagram>
</mxfile>
